<svg width="25" height="24" viewBox="0 0 25 24" fill="none" xmlns="http://www.w3.org/2000/svg">
<path d="M13.9759 0.439209C12.9691 0.439209 12.0627 1.04914 11.6835 1.98177L8.73122 9.24284C8.58395 9.60506 8.47038 9.88438 8.39839 10.1025C7.93573 11.115 7.93573 12.4355 7.93573 15.037V15.3395C7.93573 17.7705 7.93573 18.986 8.36367 19.9527C8.81832 20.9797 9.60552 21.8238 10.5984 22.3488C11.533 22.843 12.7455 22.9276 15.1706 23.0969C17.4306 23.2546 18.5606 23.3335 19.5096 23.0129C20.5183 22.6722 21.3919 22.0184 22.0032 21.1467C22.5783 20.3266 22.8213 19.2202 23.3072 17.0074L23.3721 16.7119C24.0493 13.628 24.3879 12.0858 24.0315 10.8614C23.6638 9.59863 22.8135 8.53154 21.6646 7.89135C20.5809 7.28746 19.0573 7.25771 16.0683 7.23059L16.4404 3.13789C16.5721 1.6887 15.4311 0.439209 13.9759 0.439209Z" fill="white"/>
<path d="M0.43573 11.0642C0.43573 9.6835 1.55502 8.56421 2.93573 8.56421C4.31644 8.56421 5.43573 9.6835 5.43573 11.0642V19.8142C5.43573 21.1949 4.31644 22.3142 2.93573 22.3142C1.55502 22.3142 0.43573 21.1949 0.43573 19.8142V11.0642Z" fill="white"/>
</svg>
