<svg width="24" height="24" viewBox="0 0 24 24" fill="none" xmlns="http://www.w3.org/2000/svg">
<path d="M10.3956 23.1892C11.4024 23.1892 12.3088 22.5793 12.688 21.6466L15.6403 14.3856C15.7876 14.0234 15.9011 13.7441 15.9731 13.526C16.4358 12.5134 16.4358 11.193 16.4358 8.59138V8.28888C16.4358 5.85792 16.4358 4.64245 16.0079 3.67573C15.5532 2.64868 14.766 1.80462 13.7731 1.27958C12.8385 0.785383 11.626 0.700765 9.20095 0.531534C6.94093 0.373817 5.81092 0.29496 4.86197 0.615495C3.85325 0.956217 2.97964 1.61003 2.36833 2.48175C1.79323 3.30183 1.55028 4.40822 1.06436 6.62101L0.99948 6.91648C0.322245 10.0005 -0.016371 11.5426 0.340086 12.767C0.707711 14.0298 1.55808 15.0969 2.70696 15.7371C3.79068 16.341 5.31422 16.3707 8.30321 16.3978L7.93115 20.4905C7.7994 21.9397 8.94046 23.1892 10.3956 23.1892Z" fill="#004980"/>
<path d="M23.9358 12.5642C23.9358 13.9449 22.8165 15.0642 21.4358 15.0642C20.0551 15.0642 18.9358 13.9449 18.9358 12.5642V3.8142C18.9358 2.43349 20.0551 1.3142 21.4358 1.3142C22.8165 1.3142 23.9358 2.43349 23.9358 3.8142V12.5642Z" fill="#004980"/>
</svg>
